<?xml version="1.0" standalone="no"?>
<!DOCTYPE svg PUBLIC "-//W3C//DTD SVG 20010904//EN"
 "http://www.w3.org/TR/2001/REC-SVG-20010904/DTD/svg10.dtd">
<svg version="1.0" xmlns="http://www.w3.org/2000/svg"
 width="1080.000000pt" height="1080.000000pt" viewBox="0 0 1080.000000 1080.000000"
 preserveAspectRatio="xMidYMid meet">
<metadata>
Created by potrace 1.14, written by Peter Selinger 2001-2017
</metadata>
<g transform="translate(0.000000,1080.000000) scale(0.100000,-0.100000)"
fill="#000000" stroke="none">
<path d="M0 5400 l0 -5400 5400 0 5400 0 0 5400 0 5400 -5400 0 -5400 0 0
-5400z m9596 3219 c68 -26 129 -83 164 -154 l25 -50 3 -2780 c2 -1529 0 -2800
-3 -2824 -5 -32 -16 -54 -40 -78 l-33 -33 487 0 c374 0 491 -3 504 -12 15 -12
16 -31 9 -199 -7 -168 -10 -189 -31 -222 -27 -44 -72 -80 -120 -96 -25 -8
-1356 -11 -5166 -11 l-5131 0 -53 26 c-34 17 -62 41 -79 67 -24 36 -27 51 -33
176 -4 75 -10 159 -14 187 -12 89 -46 84 518 84 l492 0 -27 23 c-15 12 -32 35
-38 51 -13 35 -14 5607 -1 5652 24 84 110 174 190 198 39 13 627 15 4183 15
l4137 1 57 -21z"/>
<path d="M3856 8549 c-52 -41 -20 -129 48 -129 34 0 76 41 76 75 0 33 -41 75
-73 75 -13 0 -36 -9 -51 -21z"/>
<path d="M1310 7990 l0 -360 533 0 534 0 211 -532 c116 -293 290 -733 388
-978 159 -400 190 -491 314 -899 76 -249 140 -455 142 -457 3 -2 62 189 132
424 144 479 142 473 598 1615 l331 827 588 0 589 0 0 -80 0 -80 -890 -2226
c-489 -1225 -890 -2232 -890 -2239 0 -10 336 -12 1645 -13 l1645 0 0 1809 0
1809 -635 0 -635 0 0 535 0 535 508 0 c279 0 1084 3 1790 7 l1282 6 0 329 0
328 -4090 0 -4090 0 0 -360z"/>
<path d="M1310 5063 l0 -2063 403 -2 c443 -1 1240 3 1245 7 4 3 -538 1358
-1435 3590 l-213 530 0 -2062z"/>
<path d="M8337 6528 c-9 -108 -9 -1317 0 -2550 l6 -976 102 -4 c57 -2 315 -2
574 0 l471 4 0 1804 0 1804 -574 0 -573 0 -6 -82z"/>
<path d="M4075 2678 c4 -13 20 -35 36 -50 l29 -28 1256 0 c1364 0 1296 -3
1322 55 7 14 12 30 12 35 0 6 -494 10 -1331 10 l-1330 0 6 -22z"/>
<path d="M9408 2520 c-40 -31 -53 -73 -39 -121 10 -32 20 -44 55 -61 51 -24
80 -20 125 18 79 66 27 184 -82 184 -19 0 -46 -9 -59 -20z"/>
<path d="M9784 2530 c-84 -34 -83 -155 1 -195 86 -40 179 38 154 128 -18 64
-87 95 -155 67z"/>
<path d="M10114 2506 c-27 -27 -34 -42 -34 -74 0 -103 135 -147 200 -65 37 47
20 132 -31 159 -50 25 -97 18 -135 -20z"/>
<path d="M518 2459 c-10 -5 -18 -18 -18 -28 0 -38 42 -42 363 -39 280 3 308 5
324 21 17 18 17 19 -6 38 -22 18 -41 19 -335 19 -192 0 -318 -4 -328 -11z"/>
</g>
</svg>
